<svg width="92" height="92" xmlns="http://www.w3.org/2000/svg">

 <g>
  <title>background</title>
  <rect fill="none" id="canvas_background" height="402" width="582" y="-1" x="-1"/>
 </g>
 <g>
  <title>Layer 1</title>
  <path fill="#d67617" id="svg_2" d="m45.651821,0.004c-25.402,0.34 -45.718,21.211 -45.381,46.615c0.34,25.393 21.209,45.715 46.611,45.377c25.398,-0.342 45.719,-21.213 45.381,-46.615c-0.34,-25.395 -21.211,-45.716 -46.611,-45.377zm5.099,15.329c4.676,0 6.057,2.714 6.057,5.815c0,3.877 -3.104,7.461 -8.396,7.461c-4.43,0 -6.537,-2.229 -6.414,-5.91c0,-3.102 2.599,-7.366 8.753,-7.366zm-11.987,59.417c-3.195,0 -5.537,-1.938 -3.301,-10.467l3.666,-15.125c0.637,-2.424 0.744,-3.393 0,-3.393c-0.959,0 -5.107,1.674 -7.557,3.322l-1.598,-2.617c7.773,-6.491 16.712,-10.299 20.544,-10.299c3.195,0 3.727,3.779 2.131,9.594l-4.199,15.9c-0.744,2.811 -0.424,3.779 0.318,3.779c0.961,0 4.102,-1.166 7.188,-3.59l1.811,2.424c-7.561,7.56 -15.81,10.472 -19.003,10.472z"/>
 </g>
</svg>